<?xml version="1.0" encoding="UTF-8" standalone="no"?>
<!-- Created with Inkscape (http://www.inkscape.org/) -->

<svg
   width="107.618mm"
   height="91.960999mm"
   viewBox="0 0 107.618 91.960999"
   version="1.1"
   id="svg5"
   sodipodi:docname="connections.svg"
   inkscape:version="1.2.2 (b0a8486541, 2022-12-01)"
   xmlns:inkscape="http://www.inkscape.org/namespaces/inkscape"
   xmlns:sodipodi="http://sodipodi.sourceforge.net/DTD/sodipodi-0.dtd"
   xmlns="http://www.w3.org/2000/svg"
   xmlns:svg="http://www.w3.org/2000/svg">
  <sodipodi:namedview
     id="namedview7"
     pagecolor="#ffffff"
     bordercolor="#666666"
     borderopacity="1.0"
     inkscape:showpageshadow="2"
     inkscape:pageopacity="0.0"
     inkscape:pagecheckerboard="0"
     inkscape:deskcolor="#d1d1d1"
     inkscape:document-units="mm"
     showgrid="false"
     inkscape:zoom="3.659624"
     inkscape:cx="178.98014"
     inkscape:cy="207.94486"
     inkscape:window-width="3840"
     inkscape:window-height="2091"
     inkscape:window-x="0"
     inkscape:window-y="0"
     inkscape:window-maximized="1"
     inkscape:current-layer="layer1" />
  <defs
     id="defs2">
    <rect
       x="-64.46402"
       y="142.45828"
       width="546.36865"
       height="144.42763"
       id="rect563" />
  </defs>
  <g
     inkscape:label="Layer 1"
     inkscape:groupmode="layer"
     id="layer1"
     transform="translate(-39.743398,-29.361607)">
    <path
       fill="none"
       stroke-width="0.224931"
       stroke-linecap="butt"
       stroke-linejoin="miter"
       stroke="#000000"
       stroke-opacity="1"
       stroke-miterlimit="10"
       d="m 60.641498,43.294539 c 0,-3.512341 -2.848679,-6.36102 -6.363225,-6.36102 -3.514545,0 -6.363224,2.848679 -6.363224,6.36102 0,3.514546 2.848679,6.363224 6.363224,6.363224 3.514546,0 6.363225,-2.848678 6.363225,-6.363224 z m 0,0"
       id="path48" />
    <g
       fill="#0000ff"
       fill-opacity="1"
       id="g52"
       transform="matrix(0.564444,0,0,0.564444,-13.377841,-5.8782469)">
      <g
         id="use50"
         transform="translate(115.346,90.523003)">
        <path
           d="m 7.28125,-0.1875 c 0,-0.125 -0.109375,-0.125 -0.1875,-0.125 -0.65625,0 -0.6875,-0.03125 -0.859375,-0.4375 L 4.953125,-3.828125 C 5.625,-4.53125 6.671875,-5.71875 7,-5.984375 7.28125,-6.234375 7.671875,-6.46875 8.265625,-6.5 c 0.125,-0.015625 0.21875,-0.015625 0.21875,-0.203125 0,0 0,-0.109375 -0.125,-0.109375 -0.296875,0 -0.640625,0.03125 -0.9375,0.03125 -0.375,0 -0.75,-0.03125 -1.109375,-0.03125 -0.0625,0 -0.1875,0 -0.1875,0.203125 0,0.0625 0.046875,0.09375 0.109375,0.109375 0.09375,0.015625 0.40625,0.03125 0.40625,0.3125 0,0.140625 -0.109375,0.265625 -0.1875,0.359375 L 4.828125,-4.09375 4,-6.078125 l -0.046875,-0.125 c 0,-0.0625 0.15625,-0.25 0.578125,-0.296875 0.109375,-0.015625 0.203125,-0.015625 0.203125,-0.1875 0,-0.125 -0.125,-0.125 -0.15625,-0.125 -0.40625,0 -0.828125,0.03125 -1.25,0.03125 -0.25,0 -0.859375,-0.03125 -1.109375,-0.03125 -0.0625,0 -0.1875,0 -0.1875,0.203125 C 2.03125,-6.5 2.140625,-6.5 2.265625,-6.5 c 0.59375,0 0.65625,0.09375 0.75,0.3125 L 4.1875,-3.40625 2.078125,-1.140625 c -0.046875,0.046875 -0.0625,0.0625 -0.125,0.109375 C 1.46875,-0.5 1,-0.34375 0.484375,-0.3125 c -0.125,0.015625 -0.21875,0.015625 -0.21875,0.203125 0,0 0,0.109375 0.140625,0.109375 0.296875,0 0.625,-0.03125 0.921875,-0.03125 C 1.703125,-0.03125 2.09375,0 2.453125,0 2.515625,0 2.625,0 2.625,-0.203125 2.625,-0.296875 2.515625,-0.3125 2.515625,-0.3125 c -0.09375,0 -0.40625,-0.03125 -0.40625,-0.3125 0,-0.15625 0.15625,-0.3125 0.265625,-0.4375 L 3.40625,-2.140625 4.296875,-3.125 l 1,2.390625 0.0625,0.140625 c 0,0.078125 -0.203125,0.25 -0.578125,0.28125 C 4.671875,-0.296875 4.578125,-0.296875 4.578125,-0.125 4.578125,0 4.6875,0 4.71875,0 L 5.984375,-0.03125 C 6.234375,-0.03125 6.84375,0 7.09375,0 c 0.0625,0 0.1875,0 0.1875,-0.1875 z m 0,0"
           id="path286" />
      </g>
    </g>
    <g
       fill="#000000"
       fill-opacity="1"
       id="g56"
       transform="matrix(0.564444,0,0,0.564444,-13.377841,-5.8782469)">
      <g
         id="use54"
         transform="translate(167.55299,90.523003)">
        <path
           d="m 7.28125,-0.1875 c 0,-0.125 -0.109375,-0.125 -0.1875,-0.125 -0.65625,0 -0.6875,-0.03125 -0.859375,-0.4375 L 4.953125,-3.828125 C 5.625,-4.53125 6.671875,-5.71875 7,-5.984375 7.28125,-6.234375 7.671875,-6.46875 8.265625,-6.5 c 0.125,-0.015625 0.21875,-0.015625 0.21875,-0.203125 0,0 0,-0.109375 -0.125,-0.109375 -0.296875,0 -0.640625,0.03125 -0.9375,0.03125 -0.375,0 -0.75,-0.03125 -1.109375,-0.03125 -0.0625,0 -0.1875,0 -0.1875,0.203125 0,0.0625 0.046875,0.09375 0.109375,0.109375 0.09375,0.015625 0.40625,0.03125 0.40625,0.3125 0,0.140625 -0.109375,0.265625 -0.1875,0.359375 L 4.828125,-4.09375 4,-6.078125 l -0.046875,-0.125 c 0,-0.0625 0.15625,-0.25 0.578125,-0.296875 0.109375,-0.015625 0.203125,-0.015625 0.203125,-0.1875 0,-0.125 -0.125,-0.125 -0.15625,-0.125 -0.40625,0 -0.828125,0.03125 -1.25,0.03125 -0.25,0 -0.859375,-0.03125 -1.109375,-0.03125 -0.0625,0 -0.1875,0 -0.1875,0.203125 C 2.03125,-6.5 2.140625,-6.5 2.265625,-6.5 c 0.59375,0 0.65625,0.09375 0.75,0.3125 L 4.1875,-3.40625 2.078125,-1.140625 c -0.046875,0.046875 -0.0625,0.0625 -0.125,0.109375 C 1.46875,-0.5 1,-0.34375 0.484375,-0.3125 c -0.125,0.015625 -0.21875,0.015625 -0.21875,0.203125 0,0 0,0.109375 0.140625,0.109375 0.296875,0 0.625,-0.03125 0.921875,-0.03125 C 1.703125,-0.03125 2.09375,0 2.453125,0 2.515625,0 2.625,0 2.625,-0.203125 2.625,-0.296875 2.515625,-0.3125 2.515625,-0.3125 c -0.09375,0 -0.40625,-0.03125 -0.40625,-0.3125 0,-0.15625 0.15625,-0.3125 0.265625,-0.4375 L 3.40625,-2.140625 4.296875,-3.125 l 1,2.390625 0.0625,0.140625 c 0,0.078125 -0.203125,0.25 -0.578125,0.28125 C 4.671875,-0.296875 4.578125,-0.296875 4.578125,-0.125 4.578125,0 4.6875,0 4.71875,0 L 5.984375,-0.03125 C 6.234375,-0.03125 6.84375,0 7.09375,0 c 0.0625,0 0.1875,0 0.1875,-0.1875 z m 0,0"
           id="path290" />
      </g>
    </g>
    <g
       fill="#000000"
       fill-opacity="1"
       id="g60"
       transform="matrix(0.564444,0,0,0.564444,-13.377841,-5.8782469)">
      <g
         id="use58"
         transform="translate(116.107,134.46899)">
        <path
           d="m 6.21875,-2.546875 c 0,-0.0625 -0.03125,-0.109375 -0.125,-0.109375 -0.09375,0 -0.109375,0.03125 -0.171875,0.25 C 5.484375,-1.0625 5,-0.34375 3.3125,-0.34375 H 1.609375 l 5.5625,-6.21875 c 0.015625,-0.046875 0.03125,-0.09375 0.03125,-0.15625 0,-0.09375 -0.046875,-0.09375 -0.25,-0.09375 H 2.75 c -0.234375,0 -0.25,0.015625 -0.3125,0.203125 L 1.890625,-4.8125 c -0.015625,0.046875 -0.03125,0.140625 -0.03125,0.140625 0,0 0,0.109375 0.125,0.109375 0.09375,0 0.109375,-0.078125 0.125,-0.109375 C 2.5,-5.84375 3.015625,-6.5 4.5625,-6.5 h 1.625 L 0.625,-0.265625 c 0,0 -0.046875,0.140625 -0.046875,0.171875 C 0.578125,0 0.640625,0 0.828125,0 H 5.15625 c 0.25,0 0.25,-0.015625 0.3125,-0.203125 L 6.1875,-2.40625 c 0,-0.03125 0.03125,-0.109375 0.03125,-0.140625 z m 0,0"
           id="path294" />
      </g>
    </g>
    <path
       fill="none"
       stroke-width="0.224931"
       stroke-linecap="butt"
       stroke-linejoin="miter"
       stroke="#000000"
       stroke-opacity="1"
       stroke-miterlimit="10"
       d="m 79.204209,72.078978 h 9.084022 v -7.957337 h -9.084022 z m 0,0"
       id="path62" />
    <g
       fill="#ff0000"
       fill-opacity="1"
       id="g66"
       transform="matrix(0.564444,0,0,0.564444,-13.377841,-5.8782469)">
      <g
         id="use64"
         transform="translate(168.314,134.46899)">
        <path
           d="m 6.21875,-2.546875 c 0,-0.0625 -0.03125,-0.109375 -0.125,-0.109375 -0.09375,0 -0.109375,0.03125 -0.171875,0.25 C 5.484375,-1.0625 5,-0.34375 3.3125,-0.34375 H 1.609375 l 5.5625,-6.21875 c 0.015625,-0.046875 0.03125,-0.09375 0.03125,-0.15625 0,-0.09375 -0.046875,-0.09375 -0.25,-0.09375 H 2.75 c -0.234375,0 -0.25,0.015625 -0.3125,0.203125 L 1.890625,-4.8125 c -0.015625,0.046875 -0.03125,0.140625 -0.03125,0.140625 0,0 0,0.109375 0.125,0.109375 0.09375,0 0.109375,-0.078125 0.125,-0.109375 C 2.5,-5.84375 3.015625,-6.5 4.5625,-6.5 h 1.625 L 0.625,-0.265625 c 0,0 -0.046875,0.140625 -0.046875,0.171875 C 0.578125,0 0.640625,0 0.828125,0 H 5.15625 c 0.25,0 0.25,-0.015625 0.3125,-0.203125 L 6.1875,-2.40625 c 0,-0.03125 0.03125,-0.109375 0.03125,-0.140625 z m 0,0"
           id="path298" />
      </g>
    </g>
    <path
       fill="none"
       stroke-width="0.22492"
       stroke-linecap="butt"
       stroke-linejoin="miter"
       stroke="#000000"
       stroke-opacity="1"
       stroke-dasharray="2.78941, 1.59395"
       stroke-miterlimit="10"
       d="M 63.287329,43.810476 H 78.439122"
       id="path68" />
    <path
       fill="none"
       stroke-width="0.22492"
       stroke-linecap="round"
       stroke-linejoin="round"
       stroke="#000000"
       stroke-opacity="1"
       stroke-miterlimit="10"
       d="m 77.38079,42.461102 c 0.213871,0.809184 0.690121,1.192829 1.17078,1.349374 -0.480659,0.156545 -0.956909,0.54019 -1.17078,1.349374"
       id="path70" />
    <g
       fill="#000000"
       fill-opacity="1"
       id="g74"
       transform="matrix(0.564444,0,0,0.564444,-13.377841,-5.8782469)">
      <g
         id="use72"
         transform="translate(146.179,85.688004)">
        <path
           d="m 6.0625,-3.296875 0.109375,-1.3125 c -0.03125,-0.125 -0.15625,-0.125 -0.265625,-0.125 H 1.828125 c -0.140625,0 -0.15625,0 -0.203125,0.046875 -0.046875,0.046875 -0.078125,0.125 -0.078125,0.1875 0,0.15625 0.125,0.15625 0.328125,0.15625 0.09375,0 0.21875,0 0.3125,0.015625 0.03125,0 0.046875,0 0.046875,0.015625 l -0.9375,3.796875 c -0.03125,0.09375 -0.03125,0.109375 -0.15625,0.125 -0.109375,0 -0.234375,0 -0.328125,0 -0.21875,0 -0.234375,0 -0.25,0.03125 C 0.46875,-0.3125 0.46875,-0.1875 0.46875,-0.15625 0.46875,-0.09375 0.5,0 0.625,0 0.796875,0 0.96875,-0.015625 1.140625,-0.015625 l 0.5625,-0.015625 0.625,0.015625 C 2.53125,-0.015625 2.75,0 2.953125,0 3.03125,0 3.1875,0 3.1875,-0.234375 c 0,-0.15625 -0.140625,-0.15625 -0.265625,-0.15625 h -0.21875 c -0.0625,0 -0.296875,0 -0.34375,-0.015625 h -0.0625 L 2.75,-2.171875 h 0.546875 c 0.515625,0 0.578125,0.078125 0.578125,0.28125 0,0.078125 -0.015625,0.1875 -0.03125,0.234375 -0.015625,0.0625 -0.015625,0.0625 -0.015625,0.09375 0,0.15625 0.15625,0.15625 0.21875,0.15625 0.1875,0 0.203125,-0.046875 0.234375,-0.203125 L 4.640625,-3.03125 c 0.03125,-0.09375 0.03125,-0.109375 0.03125,-0.140625 0,-0.15625 -0.15625,-0.15625 -0.21875,-0.15625 -0.125,0 -0.1875,0 -0.234375,0.15625 -0.140625,0.5 -0.328125,0.609375 -0.890625,0.609375 H 2.84375 l 0.4375,-1.765625 C 3.34375,-4.34375 3.421875,-4.34375 3.484375,-4.34375 h 1.03125 c 0.875,0 1.125,0.1875 1.125,0.875 0,0.125 -0.015625,0.234375 -0.015625,0.25 0,0.15625 0.15625,0.15625 0.21875,0.15625 0.203125,0 0.21875,-0.0625 0.21875,-0.234375 z m 0,0"
           id="path302" />
      </g>
    </g>
    <path
       fill="none"
       stroke-width="0.22492"
       stroke-linecap="butt"
       stroke-linejoin="miter"
       stroke="#000000"
       stroke-opacity="1"
       stroke-miterlimit="10"
       d="m 54.278273,51.941997 v 11.8423"
       id="path76" />
    <path
       fill="none"
       stroke-width="0.22492"
       stroke-linecap="round"
       stroke-linejoin="round"
       stroke="#000000"
       stroke-opacity="1"
       stroke-miterlimit="10"
       d="m 55.627647,62.725965 c -0.809183,0.213871 -1.192829,0.690121 -1.349374,1.17078 -0.156545,-0.480659 -0.54019,-0.956909 -1.349374,-1.17078"
       id="path78" />
    <g
       fill="#000000"
       fill-opacity="1"
       id="g82"
       transform="matrix(0.564444,0,0,0.564444,-13.377841,-5.8782469)">
      <g
         id="use80"
         transform="translate(122.208,115.519)">
        <path
           d="m 6.65625,-4.625 c 0,-0.078125 -0.0625,-0.15625 -0.140625,-0.15625 -0.1875,0 -0.640625,0.03125 -0.8125,0.03125 -0.1875,0 -0.65625,-0.03125 -0.84375,-0.03125 -0.171875,0 -0.21875,0.140625 -0.21875,0.234375 0,0.15625 0.15625,0.15625 0.234375,0.15625 0.28125,0 0.390625,0.03125 0.46875,0.0625 l -0.6875,2.6875 C 4.40625,-0.65625 3.546875,-0.28125 2.640625,-0.28125 2,-0.28125 1.53125,-0.484375 1.53125,-1.0625 c 0,-0.046875 0,-0.1875 0.078125,-0.46875 L 2.3125,-4.375 c 0.03125,0 0.25,-0.015625 0.390625,-0.015625 H 2.84375 c 0.125,0 0.265625,0 0.265625,-0.234375 0,-0.078125 -0.0625,-0.15625 -0.15625,-0.15625 -0.171875,0 -0.34375,0.015625 -0.515625,0.015625 L 1.890625,-4.75 1.359375,-4.765625 c -0.1875,0 -0.390625,-0.015625 -0.5625,-0.015625 -0.046875,0 -0.21875,0 -0.21875,0.234375 0,0.15625 0.140625,0.15625 0.265625,0.15625 h 0.125 c 0.296875,0 0.296875,0.015625 0.296875,0.03125 0,0.046875 -0.234375,0.953125 -0.265625,1.0625 l -0.421875,1.71875 c -0.03125,0.15625 -0.03125,0.15625 -0.03125,0.296875 0,0.734375 0.59375,1.390625 2.046875,1.390625 1.546875,0 2.359375,-0.859375 2.5625,-1.671875 l 0.6875,-2.734375 c 0.1875,-0.09375 0.453125,-0.09375 0.53125,-0.09375 0.140625,0 0.28125,0 0.28125,-0.234375 z m 0,0"
           id="path306" />
      </g>
    </g>
    <path
       fill="none"
       stroke-width="0.22492"
       stroke-linecap="butt"
       stroke-linejoin="miter"
       stroke="#000000"
       stroke-opacity="1"
       stroke-dasharray="2.78941, 1.59395"
       stroke-miterlimit="10"
       d="M 83.746219,47.386758 V 61.61251"
       id="path84" />
    <path
       fill="none"
       stroke-width="0.22492"
       stroke-linecap="round"
       stroke-linejoin="round"
       stroke="#000000"
       stroke-opacity="1"
       stroke-miterlimit="10"
       d="m 85.095594,60.556383 c -0.809187,0.213871 -1.190627,0.690121 -1.349375,1.168575 -0.156545,-0.478454 -0.540191,-0.954704 -1.349374,-1.168575"
       id="path86" />
    <g
       fill="#000000"
       fill-opacity="1"
       id="g90"
       transform="matrix(0.564444,0,0,0.564444,-13.377841,-5.8782469)">
      <g
         id="use88"
         transform="translate(174.41499,109.562)">
        <path
           d="m 6.65625,-4.625 c 0,-0.078125 -0.0625,-0.15625 -0.140625,-0.15625 -0.1875,0 -0.640625,0.03125 -0.8125,0.03125 -0.1875,0 -0.65625,-0.03125 -0.84375,-0.03125 -0.171875,0 -0.21875,0.140625 -0.21875,0.234375 0,0.15625 0.15625,0.15625 0.234375,0.15625 0.28125,0 0.390625,0.03125 0.46875,0.0625 l -0.6875,2.6875 C 4.40625,-0.65625 3.546875,-0.28125 2.640625,-0.28125 2,-0.28125 1.53125,-0.484375 1.53125,-1.0625 c 0,-0.046875 0,-0.1875 0.078125,-0.46875 L 2.3125,-4.375 c 0.03125,0 0.25,-0.015625 0.390625,-0.015625 H 2.84375 c 0.125,0 0.265625,0 0.265625,-0.234375 0,-0.078125 -0.0625,-0.15625 -0.15625,-0.15625 -0.171875,0 -0.34375,0.015625 -0.515625,0.015625 L 1.890625,-4.75 1.359375,-4.765625 c -0.1875,0 -0.390625,-0.015625 -0.5625,-0.015625 -0.046875,0 -0.21875,0 -0.21875,0.234375 0,0.15625 0.140625,0.15625 0.265625,0.15625 h 0.125 c 0.296875,0 0.296875,0.015625 0.296875,0.03125 0,0.046875 -0.234375,0.953125 -0.265625,1.0625 l -0.421875,1.71875 c -0.03125,0.15625 -0.03125,0.15625 -0.03125,0.296875 0,0.734375 0.59375,1.390625 2.046875,1.390625 1.546875,0 2.359375,-0.859375 2.5625,-1.671875 l 0.6875,-2.734375 c 0.1875,-0.09375 0.453125,-0.09375 0.53125,-0.09375 0.140625,0 0.28125,0 0.28125,-0.234375 z m 0,0"
           id="path310" />
      </g>
    </g>
    <path
       fill="none"
       stroke-width="0.22492"
       stroke-linecap="butt"
       stroke-linejoin="miter"
       stroke="#000000"
       stroke-opacity="1"
       stroke-miterlimit="10"
       d="M 58.932731,68.615144 H 76.333482"
       id="path92" />
    <path
       fill="none"
       stroke-width="0.22492"
       stroke-linecap="round"
       stroke-linejoin="round"
       stroke="#000000"
       stroke-opacity="1"
       stroke-miterlimit="10"
       d="m 75.277354,67.26577 c 0.213871,0.811388 0.690121,1.192829 1.168576,1.349374 -0.478455,0.15875 -0.954705,0.540191 -1.168576,1.351579"
       id="path94" />
    <g
       fill="#000000"
       fill-opacity="1"
       id="g98"
       transform="matrix(0.564444,0,0,0.564444,-13.377841,-5.8782469)">
      <g
         id="use96"
         transform="translate(140.84,129.634)">
        <path
           d="m 4.890625,-1.6875 c 0,-0.4375 -0.25,-0.734375 -0.28125,-0.765625 -0.328125,-0.328125 -0.515625,-0.375 -1.1875,-0.5 l -0.578125,-0.125 c -0.171875,-0.03125 -0.671875,-0.140625 -0.671875,-0.5625 0,-0.296875 0.3125,-0.890625 1.28125,-0.890625 0.59375,0 1.203125,0.203125 1.203125,0.984375 0,0.125 -0.015625,0.1875 -0.015625,0.21875 0,0.140625 0.109375,0.140625 0.234375,0.140625 0.140625,0 0.1875,0 0.21875,-0.15625 l 0.328125,-1.3125 c 0.015625,-0.03125 0.03125,-0.078125 0.03125,-0.109375 0,-0.125 -0.140625,-0.125 -0.15625,-0.125 -0.09375,0 -0.09375,0 -0.1875,0.0625 L 4.71875,-4.5 c -0.328125,-0.296875 -0.8125,-0.390625 -1.25,-0.390625 -1.453125,0 -2.078125,1.015625 -2.078125,1.671875 0,0.375 0.203125,0.625 0.25,0.6875 0.328125,0.34375 0.625,0.390625 1.03125,0.46875 L 3.375,-1.90625 c 0.234375,0.03125 0.734375,0.140625 0.734375,0.625 0,0.28125 -0.265625,1 -1.328125,1 -0.625,0 -1.46875,-0.125 -1.46875,-0.859375 0,-0.109375 0,-0.125 0.03125,-0.28125 0.015625,-0.03125 0.015625,-0.046875 0.015625,-0.046875 0,-0.125 -0.140625,-0.125 -0.21875,-0.125 -0.125,0 -0.1875,0 -0.21875,0.109375 0,0 -0.359375,1.4375 -0.359375,1.46875 0,0.109375 0.078125,0.125 0.15625,0.125 0.078125,0 0.09375,-0.015625 0.140625,-0.046875 0.0625,-0.046875 0.203125,-0.15625 0.40625,-0.328125 0.359375,0.28125 0.953125,0.375 1.484375,0.375 1.578125,0 2.140625,-1.1875 2.140625,-1.796875 z m 0,0"
           id="path314" />
      </g>
    </g>
    <g
       fill="#000000"
       fill-opacity="1"
       id="g108"
       transform="matrix(0.564444,0,0,0.564444,-13.377841,-5.8782469)">
      <g
         id="use106"
         transform="translate(211.3,86.900002)">
        <path
           d="m 7.28125,-0.1875 c 0,-0.125 -0.109375,-0.125 -0.1875,-0.125 -0.65625,0 -0.6875,-0.03125 -0.859375,-0.4375 L 4.953125,-3.828125 C 5.625,-4.53125 6.671875,-5.71875 7,-5.984375 7.28125,-6.234375 7.671875,-6.46875 8.265625,-6.5 c 0.125,-0.015625 0.21875,-0.015625 0.21875,-0.203125 0,0 0,-0.109375 -0.125,-0.109375 -0.296875,0 -0.640625,0.03125 -0.9375,0.03125 -0.375,0 -0.75,-0.03125 -1.109375,-0.03125 -0.0625,0 -0.1875,0 -0.1875,0.203125 0,0.0625 0.046875,0.09375 0.109375,0.109375 0.09375,0.015625 0.40625,0.03125 0.40625,0.3125 0,0.140625 -0.109375,0.265625 -0.1875,0.359375 L 4.828125,-4.09375 4,-6.078125 l -0.046875,-0.125 c 0,-0.0625 0.15625,-0.25 0.578125,-0.296875 0.109375,-0.015625 0.203125,-0.015625 0.203125,-0.1875 0,-0.125 -0.125,-0.125 -0.15625,-0.125 -0.40625,0 -0.828125,0.03125 -1.25,0.03125 -0.25,0 -0.859375,-0.03125 -1.109375,-0.03125 -0.0625,0 -0.1875,0 -0.1875,0.203125 C 2.03125,-6.5 2.140625,-6.5 2.265625,-6.5 c 0.59375,0 0.65625,0.09375 0.75,0.3125 L 4.1875,-3.40625 2.078125,-1.140625 c -0.046875,0.046875 -0.0625,0.0625 -0.125,0.109375 C 1.46875,-0.5 1,-0.34375 0.484375,-0.3125 c -0.125,0.015625 -0.21875,0.015625 -0.21875,0.203125 0,0 0,0.109375 0.140625,0.109375 0.296875,0 0.625,-0.03125 0.921875,-0.03125 C 1.703125,-0.03125 2.09375,0 2.453125,0 2.515625,0 2.625,0 2.625,-0.203125 2.625,-0.296875 2.515625,-0.3125 2.515625,-0.3125 c -0.09375,0 -0.40625,-0.03125 -0.40625,-0.3125 0,-0.15625 0.15625,-0.3125 0.265625,-0.4375 L 3.40625,-2.140625 4.296875,-3.125 l 1,2.390625 0.0625,0.140625 c 0,0.078125 -0.203125,0.25 -0.578125,0.28125 C 4.671875,-0.296875 4.578125,-0.296875 4.578125,-0.125 4.578125,0 4.6875,0 4.71875,0 L 5.984375,-0.03125 C 6.234375,-0.03125 6.84375,0 7.09375,0 c 0.0625,0 0.1875,0 0.1875,-0.1875 z m 0,0"
           id="path326" />
      </g>
    </g>
    <path
       fill="none"
       stroke-width="0.224931"
       stroke-linecap="butt"
       stroke-linejoin="miter"
       stroke="#000000"
       stroke-opacity="1"
       stroke-miterlimit="10"
       d="m 133.02703,45.230405 h 9.94171 v -7.959542 h -9.94171 z m 0,0"
       id="path110" />
    <g
       fill="#ff0000"
       fill-opacity="1"
       id="g114"
       transform="matrix(0.564444,0,0,0.564444,-13.377841,-5.8782469)">
      <g
         id="use112"
         transform="translate(263.668,86.900002)">
        <path
           d="m 7.28125,-0.1875 c 0,-0.125 -0.109375,-0.125 -0.1875,-0.125 -0.65625,0 -0.6875,-0.03125 -0.859375,-0.4375 L 4.953125,-3.828125 C 5.625,-4.53125 6.671875,-5.71875 7,-5.984375 7.28125,-6.234375 7.671875,-6.46875 8.265625,-6.5 c 0.125,-0.015625 0.21875,-0.015625 0.21875,-0.203125 0,0 0,-0.109375 -0.125,-0.109375 -0.296875,0 -0.640625,0.03125 -0.9375,0.03125 -0.375,0 -0.75,-0.03125 -1.109375,-0.03125 -0.0625,0 -0.1875,0 -0.1875,0.203125 0,0.0625 0.046875,0.09375 0.109375,0.109375 0.09375,0.015625 0.40625,0.03125 0.40625,0.3125 0,0.140625 -0.109375,0.265625 -0.1875,0.359375 L 4.828125,-4.09375 4,-6.078125 l -0.046875,-0.125 c 0,-0.0625 0.15625,-0.25 0.578125,-0.296875 0.109375,-0.015625 0.203125,-0.015625 0.203125,-0.1875 0,-0.125 -0.125,-0.125 -0.15625,-0.125 -0.40625,0 -0.828125,0.03125 -1.25,0.03125 -0.25,0 -0.859375,-0.03125 -1.109375,-0.03125 -0.0625,0 -0.1875,0 -0.1875,0.203125 C 2.03125,-6.5 2.140625,-6.5 2.265625,-6.5 c 0.59375,0 0.65625,0.09375 0.75,0.3125 L 4.1875,-3.40625 2.078125,-1.140625 c -0.046875,0.046875 -0.0625,0.0625 -0.125,0.109375 C 1.46875,-0.5 1,-0.34375 0.484375,-0.3125 c -0.125,0.015625 -0.21875,0.015625 -0.21875,0.203125 0,0 0,0.109375 0.140625,0.109375 0.296875,0 0.625,-0.03125 0.921875,-0.03125 C 1.703125,-0.03125 2.09375,0 2.453125,0 2.515625,0 2.625,0 2.625,-0.203125 2.625,-0.296875 2.515625,-0.3125 2.515625,-0.3125 c -0.09375,0 -0.40625,-0.03125 -0.40625,-0.3125 0,-0.15625 0.15625,-0.3125 0.265625,-0.4375 L 3.40625,-2.140625 4.296875,-3.125 l 1,2.390625 0.0625,0.140625 c 0,0.078125 -0.203125,0.25 -0.578125,0.28125 C 4.671875,-0.296875 4.578125,-0.296875 4.578125,-0.125 4.578125,0 4.6875,0 4.71875,0 L 5.984375,-0.03125 C 6.234375,-0.03125 6.84375,0 7.09375,0 c 0.0625,0 0.1875,0 0.1875,-0.1875 z m 0,0"
           id="path330" />
      </g>
    </g>
    <path
       fill="none"
       stroke-width="0.224931"
       stroke-linecap="butt"
       stroke-linejoin="miter"
       stroke="#000000"
       stroke-opacity="1"
       stroke-miterlimit="10"
       d="m 114.46432,65.717959 c 0,-3.327133 -2.69875,-6.025881 -6.02588,-6.025881 -3.32714,0 -6.02368,2.698748 -6.02368,6.025881 0,3.327132 2.69654,6.023676 6.02368,6.023676 3.32713,0 6.02588,-2.696544 6.02588,-6.023676 z m 0,0"
       id="path116" />
    <g
       fill="#0000ff"
       fill-opacity="1"
       id="g120"
       transform="matrix(0.564444,0,0,0.564444,-13.377841,-5.8782469)">
      <g
         id="use118"
         transform="translate(212.061,130.246)">
        <path
           d="m 6.21875,-2.546875 c 0,-0.0625 -0.03125,-0.109375 -0.125,-0.109375 -0.09375,0 -0.109375,0.03125 -0.171875,0.25 C 5.484375,-1.0625 5,-0.34375 3.3125,-0.34375 H 1.609375 l 5.5625,-6.21875 c 0.015625,-0.046875 0.03125,-0.09375 0.03125,-0.15625 0,-0.09375 -0.046875,-0.09375 -0.25,-0.09375 H 2.75 c -0.234375,0 -0.25,0.015625 -0.3125,0.203125 L 1.890625,-4.8125 c -0.015625,0.046875 -0.03125,0.140625 -0.03125,0.140625 0,0 0,0.109375 0.125,0.109375 0.09375,0 0.109375,-0.078125 0.125,-0.109375 C 2.5,-5.84375 3.015625,-6.5 4.5625,-6.5 h 1.625 L 0.625,-0.265625 c 0,0 -0.046875,0.140625 -0.046875,0.171875 C 0.578125,0 0.640625,0 0.828125,0 H 5.15625 c 0.25,0 0.25,-0.015625 0.3125,-0.203125 L 6.1875,-2.40625 c 0,-0.03125 0.03125,-0.109375 0.03125,-0.140625 z m 0,0"
           id="path334" />
      </g>
    </g>
    <g
       fill="#000000"
       fill-opacity="1"
       id="g124"
       transform="matrix(0.564444,0,0,0.564444,-13.377841,-5.8782469)">
      <g
         id="use122"
         transform="translate(264.42899,130.246)">
        <path
           d="m 6.21875,-2.546875 c 0,-0.0625 -0.03125,-0.109375 -0.125,-0.109375 -0.09375,0 -0.109375,0.03125 -0.171875,0.25 C 5.484375,-1.0625 5,-0.34375 3.3125,-0.34375 H 1.609375 l 5.5625,-6.21875 c 0.015625,-0.046875 0.03125,-0.09375 0.03125,-0.15625 0,-0.09375 -0.046875,-0.09375 -0.25,-0.09375 H 2.75 c -0.234375,0 -0.25,0.015625 -0.3125,0.203125 L 1.890625,-4.8125 c -0.015625,0.046875 -0.03125,0.140625 -0.03125,0.140625 0,0 0,0.109375 0.125,0.109375 0.09375,0 0.109375,-0.078125 0.125,-0.109375 C 2.5,-5.84375 3.015625,-6.5 4.5625,-6.5 h 1.625 L 0.625,-0.265625 c 0,0 -0.046875,0.140625 -0.046875,0.171875 C 0.578125,0 0.640625,0 0.828125,0 H 5.15625 c 0.25,0 0.25,-0.015625 0.3125,-0.203125 L 6.1875,-2.40625 c 0,-0.03125 0.03125,-0.109375 0.03125,-0.140625 z m 0,0"
           id="path338" />
      </g>
    </g>
    <path
       fill="none"
       stroke-width="0.22492"
       stroke-linecap="butt"
       stroke-linejoin="miter"
       stroke="#000000"
       stroke-opacity="1"
       stroke-dasharray="2.78941, 1.59395"
       stroke-miterlimit="10"
       d="M 113.52284,41.766571 H 130.1563"
       id="path126" />
    <path
       fill="none"
       stroke-width="0.22492"
       stroke-linecap="round"
       stroke-linejoin="round"
       stroke="#000000"
       stroke-opacity="1"
       stroke-miterlimit="10"
       d="m 129.09797,40.417197 c 0.21387,0.809184 0.69012,1.190624 1.17078,1.349374 -0.48066,0.156545 -0.95691,0.537986 -1.17078,1.349374"
       id="path128" />
    <g
       fill="#000000"
       fill-opacity="1"
       id="g132"
       transform="matrix(0.564444,0,0,0.564444,-13.377841,-5.8782469)">
      <g
         id="use130"
         transform="translate(236.492,82.065002)">
        <path
           d="m 6.0625,-3.296875 0.109375,-1.3125 c -0.03125,-0.125 -0.15625,-0.125 -0.265625,-0.125 H 1.828125 c -0.140625,0 -0.15625,0 -0.203125,0.046875 -0.046875,0.046875 -0.078125,0.125 -0.078125,0.1875 0,0.15625 0.125,0.15625 0.328125,0.15625 0.09375,0 0.21875,0 0.3125,0.015625 0.03125,0 0.046875,0 0.046875,0.015625 l -0.9375,3.796875 c -0.03125,0.09375 -0.03125,0.109375 -0.15625,0.125 -0.109375,0 -0.234375,0 -0.328125,0 -0.21875,0 -0.234375,0 -0.25,0.03125 C 0.46875,-0.3125 0.46875,-0.1875 0.46875,-0.15625 0.46875,-0.09375 0.5,0 0.625,0 0.796875,0 0.96875,-0.015625 1.140625,-0.015625 l 0.5625,-0.015625 0.625,0.015625 C 2.53125,-0.015625 2.75,0 2.953125,0 3.03125,0 3.1875,0 3.1875,-0.234375 c 0,-0.15625 -0.140625,-0.15625 -0.265625,-0.15625 h -0.21875 c -0.0625,0 -0.296875,0 -0.34375,-0.015625 h -0.0625 L 2.75,-2.171875 h 0.546875 c 0.515625,0 0.578125,0.078125 0.578125,0.28125 0,0.078125 -0.015625,0.1875 -0.03125,0.234375 -0.015625,0.0625 -0.015625,0.0625 -0.015625,0.09375 0,0.15625 0.15625,0.15625 0.21875,0.15625 0.1875,0 0.203125,-0.046875 0.234375,-0.203125 L 4.640625,-3.03125 c 0.03125,-0.09375 0.03125,-0.109375 0.03125,-0.140625 0,-0.15625 -0.15625,-0.15625 -0.21875,-0.15625 -0.125,0 -0.1875,0 -0.234375,0.15625 -0.140625,0.5 -0.328125,0.609375 -0.890625,0.609375 H 2.84375 l 0.4375,-1.765625 C 3.34375,-4.34375 3.421875,-4.34375 3.484375,-4.34375 h 1.03125 c 0.875,0 1.125,0.1875 1.125,0.875 0,0.125 -0.015625,0.234375 -0.015625,0.25 0,0.15625 0.15625,0.15625 0.21875,0.15625 0.203125,0 0.21875,-0.0625 0.21875,-0.234375 z m 0,0"
           id="path342" />
      </g>
    </g>
    <path
       fill="none"
       stroke-width="0.22492"
       stroke-linecap="butt"
       stroke-linejoin="miter"
       stroke="#000000"
       stroke-opacity="1"
       stroke-miterlimit="10"
       d="m 117.11015,66.231691 h 16.00948"
       id="path134" />
    <path
       fill="none"
       stroke-width="0.22492"
       stroke-linecap="round"
       stroke-linejoin="round"
       stroke="#000000"
       stroke-opacity="1"
       stroke-miterlimit="10"
       d="m 132.0613,64.882317 c 0.21387,0.809183 0.69012,1.192829 1.17078,1.349374 -0.48066,0.15875 -0.95691,0.54019 -1.17078,1.349374"
       id="path136" />
    <g
       fill="#000000"
       fill-opacity="1"
       id="g140"
       transform="matrix(0.564444,0,0,0.564444,-13.377841,-5.8782469)">
      <g
         id="use138"
         transform="translate(242.677,125.411)">
        <path
           d="m 4.890625,-1.6875 c 0,-0.4375 -0.25,-0.734375 -0.28125,-0.765625 -0.328125,-0.328125 -0.515625,-0.375 -1.1875,-0.5 l -0.578125,-0.125 c -0.171875,-0.03125 -0.671875,-0.140625 -0.671875,-0.5625 0,-0.296875 0.3125,-0.890625 1.28125,-0.890625 0.59375,0 1.203125,0.203125 1.203125,0.984375 0,0.125 -0.015625,0.1875 -0.015625,0.21875 0,0.140625 0.109375,0.140625 0.234375,0.140625 0.140625,0 0.1875,0 0.21875,-0.15625 l 0.328125,-1.3125 c 0.015625,-0.03125 0.03125,-0.078125 0.03125,-0.109375 0,-0.125 -0.140625,-0.125 -0.15625,-0.125 -0.09375,0 -0.09375,0 -0.1875,0.0625 L 4.71875,-4.5 c -0.328125,-0.296875 -0.8125,-0.390625 -1.25,-0.390625 -1.453125,0 -2.078125,1.015625 -2.078125,1.671875 0,0.375 0.203125,0.625 0.25,0.6875 0.328125,0.34375 0.625,0.390625 1.03125,0.46875 L 3.375,-1.90625 c 0.234375,0.03125 0.734375,0.140625 0.734375,0.625 0,0.28125 -0.265625,1 -1.328125,1 -0.625,0 -1.46875,-0.125 -1.46875,-0.859375 0,-0.109375 0,-0.125 0.03125,-0.28125 0.015625,-0.03125 0.015625,-0.046875 0.015625,-0.046875 0,-0.125 -0.140625,-0.125 -0.21875,-0.125 -0.125,0 -0.1875,0 -0.21875,0.109375 0,0 -0.359375,1.4375 -0.359375,1.46875 0,0.109375 0.078125,0.125 0.15625,0.125 0.078125,0 0.09375,-0.015625 0.140625,-0.046875 0.0625,-0.046875 0.203125,-0.15625 0.40625,-0.328125 0.359375,0.28125 0.953125,0.375 1.484375,0.375 1.578125,0 2.140625,-1.1875 2.140625,-1.796875 z m 0,0"
           id="path346" />
      </g>
    </g>
    <path
       fill="none"
       stroke-width="0.22492"
       stroke-linecap="butt"
       stroke-linejoin="miter"
       stroke="#000000"
       stroke-opacity="1"
       stroke-dasharray="2.78941, 1.59395"
       stroke-miterlimit="10"
       d="m 108.43844,57.410049 v -11.8423"
       id="path142" />
    <path
       fill="none"
       stroke-width="0.22492"
       stroke-linecap="round"
       stroke-linejoin="round"
       stroke="#000000"
       stroke-opacity="1"
       stroke-miterlimit="10"
       d="m 107.08906,46.623877 c 0.80918,-0.213872 1.19283,-0.690121 1.34938,-1.168576 0.15875,0.478455 0.54019,0.954704 1.34937,1.168576"
       id="path144" />
    <g
       fill="#000000"
       fill-opacity="1"
       id="g148"
       transform="matrix(0.564444,0,0,0.564444,-13.377841,-5.8782469)">
      <g
         id="use146"
         transform="translate(203.69701,103.827)">
        <path
           d="m 9.34375,-4.625 c 0,-0.125 -0.109375,-0.15625 -0.140625,-0.15625 -0.171875,0 -0.40625,0.03125 -0.59375,0.03125 -0.1875,0 -0.671875,-0.03125 -0.859375,-0.03125 -0.109375,0 -0.21875,0.046875 -0.21875,0.234375 0,0.15625 0.15625,0.15625 0.21875,0.15625 0.140625,0 0.28125,0.015625 0.421875,0.0625 l -2.125,3.21875 -0.53125,-3.25 c 0.15625,-0.03125 0.25,-0.03125 0.46875,-0.03125 0.078125,0 0.21875,0 0.21875,-0.234375 0,-0.078125 -0.046875,-0.15625 -0.15625,-0.15625 -0.171875,0 -0.34375,0.015625 -0.515625,0.015625 L 5,-4.75 4.546875,-4.765625 c -0.140625,0 -0.296875,-0.015625 -0.4375,-0.015625 -0.078125,0 -0.109375,0 -0.171875,0.0625 -0.03125,0.046875 -0.046875,0.171875 -0.046875,0.171875 0,0.15625 0.15625,0.15625 0.203125,0.15625 0.09375,0 0.28125,0 0.359375,0.015625 l 0.078125,0.5 c 0,0 0,0.015625 -0.046875,0.078125 l -1.765625,2.6875 -0.5,-3.125 -0.015625,-0.09375 c 0,-0.03125 0.015625,-0.046875 0.140625,-0.0625 0.109375,0 0.15625,0 0.234375,0 0.1875,0 0.203125,0 0.25,-0.046875 0.046875,-0.046875 0.0625,-0.1875 0.0625,-0.1875 0,-0.046875 -0.046875,-0.15625 -0.171875,-0.15625 -0.15625,0 -0.34375,0.015625 -0.515625,0.015625 L 1.671875,-4.75 1.234375,-4.765625 c -0.140625,0 -0.3125,-0.015625 -0.453125,-0.015625 -0.0625,0 -0.203125,0 -0.203125,0.234375 0,0.15625 0.125,0.15625 0.265625,0.15625 0.078125,0 0.15625,0 0.234375,0 C 1.125,-4.375 1.140625,-4.375 1.15625,-4.265625 L 1.8125,-0.125 c 0.046875,0.234375 0.125,0.234375 0.3125,0.234375 0.171875,0 0.265625,0 0.390625,-0.1875 l 2.125,-3.21875 0.5,3.171875 c 0.03125,0.203125 0.0625,0.234375 0.3125,0.234375 0.21875,0 0.265625,-0.015625 0.375,-0.1875 L 8.515625,-4.125 c 0.09375,-0.140625 0.171875,-0.265625 0.59375,-0.265625 0.09375,0 0.234375,0 0.234375,-0.234375 z m 0,0"
           id="path350" />
      </g>
    </g>
    <path
       fill="none"
       stroke-width="0.22492"
       stroke-linecap="butt"
       stroke-linejoin="miter"
       stroke="#000000"
       stroke-opacity="1"
       stroke-miterlimit="10"
       d="M 137.99899,61.62574 V 47.73733"
       id="path150" />
    <path
       fill="none"
       stroke-width="0.22492"
       stroke-linecap="round"
       stroke-linejoin="round"
       stroke="#000000"
       stroke-opacity="1"
       stroke-miterlimit="10"
       d="m 136.64741,48.795663 c 0.81139,-0.213871 1.19283,-0.690121 1.35158,-1.170781 0.15654,0.48066 0.53798,0.95691 1.34937,1.170781"
       id="path152" />
    <g
       fill="#000000"
       fill-opacity="1"
       id="g156"
       transform="matrix(0.564444,0,0,0.564444,-13.377841,-5.8782469)">
      <g
         id="use154"
         transform="translate(256.064,109.484)">
        <path
           d="m 9.34375,-4.625 c 0,-0.125 -0.109375,-0.15625 -0.140625,-0.15625 -0.171875,0 -0.40625,0.03125 -0.59375,0.03125 -0.1875,0 -0.671875,-0.03125 -0.859375,-0.03125 -0.109375,0 -0.21875,0.046875 -0.21875,0.234375 0,0.15625 0.15625,0.15625 0.21875,0.15625 0.140625,0 0.28125,0.015625 0.421875,0.0625 l -2.125,3.21875 -0.53125,-3.25 c 0.15625,-0.03125 0.25,-0.03125 0.46875,-0.03125 0.078125,0 0.21875,0 0.21875,-0.234375 0,-0.078125 -0.046875,-0.15625 -0.15625,-0.15625 -0.171875,0 -0.34375,0.015625 -0.515625,0.015625 L 5,-4.75 4.546875,-4.765625 c -0.140625,0 -0.296875,-0.015625 -0.4375,-0.015625 -0.078125,0 -0.109375,0 -0.171875,0.0625 -0.03125,0.046875 -0.046875,0.171875 -0.046875,0.171875 0,0.15625 0.15625,0.15625 0.203125,0.15625 0.09375,0 0.28125,0 0.359375,0.015625 l 0.078125,0.5 c 0,0 0,0.015625 -0.046875,0.078125 l -1.765625,2.6875 -0.5,-3.125 -0.015625,-0.09375 c 0,-0.03125 0.015625,-0.046875 0.140625,-0.0625 0.109375,0 0.15625,0 0.234375,0 0.1875,0 0.203125,0 0.25,-0.046875 0.046875,-0.046875 0.0625,-0.1875 0.0625,-0.1875 0,-0.046875 -0.046875,-0.15625 -0.171875,-0.15625 -0.15625,0 -0.34375,0.015625 -0.515625,0.015625 L 1.671875,-4.75 1.234375,-4.765625 c -0.140625,0 -0.3125,-0.015625 -0.453125,-0.015625 -0.0625,0 -0.203125,0 -0.203125,0.234375 0,0.15625 0.125,0.15625 0.265625,0.15625 0.078125,0 0.15625,0 0.234375,0 C 1.125,-4.375 1.140625,-4.375 1.15625,-4.265625 L 1.8125,-0.125 c 0.046875,0.234375 0.125,0.234375 0.3125,0.234375 0.171875,0 0.265625,0 0.390625,-0.1875 l 2.125,-3.21875 0.5,3.171875 c 0.03125,0.203125 0.0625,0.234375 0.3125,0.234375 0.21875,0 0.265625,-0.015625 0.375,-0.1875 L 8.515625,-4.125 c 0.09375,-0.140625 0.171875,-0.265625 0.59375,-0.265625 0.09375,0 0.234375,0 0.234375,-0.234375 z m 0,0"
           id="path354" />
      </g>
    </g>
    <path
       fill="none"
       stroke-width="0.224931"
       stroke-linecap="butt"
       stroke-linejoin="miter"
       stroke="#000000"
       stroke-opacity="1"
       stroke-miterlimit="10"
       d="m 60.436455,93.768188 c 0,-3.514546 -2.848679,-6.363224 -6.363225,-6.363224 -3.514545,0 -6.363224,2.848678 -6.363224,6.363224 0,3.514546 2.848679,6.363222 6.363224,6.363222 3.514546,0 6.363225,-2.848676 6.363225,-6.363222 z m 0,0"
       id="path164" />
    <g
       fill="#0000ff"
       fill-opacity="1"
       id="g168"
       transform="matrix(0.564444,0,0,0.564444,-0.14867534,4.7050864)">
      <g
         id="use166"
         transform="translate(91.545998,161.19299)">
        <path
           d="m 7.28125,-0.1875 c 0,-0.125 -0.109375,-0.125 -0.1875,-0.125 -0.65625,0 -0.6875,-0.03125 -0.859375,-0.4375 L 4.953125,-3.828125 C 5.625,-4.53125 6.671875,-5.71875 7,-5.984375 7.28125,-6.234375 7.671875,-6.46875 8.265625,-6.5 c 0.125,-0.015625 0.21875,-0.015625 0.21875,-0.203125 0,0 0,-0.109375 -0.125,-0.109375 -0.296875,0 -0.640625,0.03125 -0.9375,0.03125 -0.375,0 -0.75,-0.03125 -1.109375,-0.03125 -0.0625,0 -0.1875,0 -0.1875,0.203125 0,0.0625 0.046875,0.09375 0.109375,0.109375 0.09375,0.015625 0.40625,0.03125 0.40625,0.3125 0,0.140625 -0.109375,0.265625 -0.1875,0.359375 L 4.828125,-4.09375 4,-6.078125 l -0.046875,-0.125 c 0,-0.0625 0.15625,-0.25 0.578125,-0.296875 0.109375,-0.015625 0.203125,-0.015625 0.203125,-0.1875 0,-0.125 -0.125,-0.125 -0.15625,-0.125 -0.40625,0 -0.828125,0.03125 -1.25,0.03125 -0.25,0 -0.859375,-0.03125 -1.109375,-0.03125 -0.0625,0 -0.1875,0 -0.1875,0.203125 C 2.03125,-6.5 2.140625,-6.5 2.265625,-6.5 c 0.59375,0 0.65625,0.09375 0.75,0.3125 L 4.1875,-3.40625 2.078125,-1.140625 c -0.046875,0.046875 -0.0625,0.0625 -0.125,0.109375 C 1.46875,-0.5 1,-0.34375 0.484375,-0.3125 c -0.125,0.015625 -0.21875,0.015625 -0.21875,0.203125 0,0 0,0.109375 0.140625,0.109375 0.296875,0 0.625,-0.03125 0.921875,-0.03125 C 1.703125,-0.03125 2.09375,0 2.453125,0 2.515625,0 2.625,0 2.625,-0.203125 2.625,-0.296875 2.515625,-0.3125 2.515625,-0.3125 c -0.09375,0 -0.40625,-0.03125 -0.40625,-0.3125 0,-0.15625 0.15625,-0.3125 0.265625,-0.4375 L 3.40625,-2.140625 4.296875,-3.125 l 1,2.390625 0.0625,0.140625 c 0,0.078125 -0.203125,0.25 -0.578125,0.28125 C 4.671875,-0.296875 4.578125,-0.296875 4.578125,-0.125 4.578125,0 4.6875,0 4.71875,0 L 5.984375,-0.03125 C 6.234375,-0.03125 6.84375,0 7.09375,0 c 0.0625,0 0.1875,0 0.1875,-0.1875 z m 0,0"
           id="path366" />
      </g>
    </g>
    <path
       fill="none"
       stroke-width="0.224931"
       stroke-linecap="butt"
       stroke-linejoin="miter"
       stroke="#000000"
       stroke-opacity="1"
       stroke-miterlimit="10"
       d="m 79.001371,97.747959 h 9.94171 v -7.959543 h -9.94171 z m 0,0"
       id="path170" />
    <g
       fill="#ff0000"
       fill-opacity="1"
       id="g174"
       transform="matrix(0.564444,0,0,0.564444,-0.14867534,4.7050864)">
      <g
         id="use172"
         transform="translate(144.51401,161.19299)">
        <path
           d="m 7.28125,-0.1875 c 0,-0.125 -0.109375,-0.125 -0.1875,-0.125 -0.65625,0 -0.6875,-0.03125 -0.859375,-0.4375 L 4.953125,-3.828125 C 5.625,-4.53125 6.671875,-5.71875 7,-5.984375 7.28125,-6.234375 7.671875,-6.46875 8.265625,-6.5 c 0.125,-0.015625 0.21875,-0.015625 0.21875,-0.203125 0,0 0,-0.109375 -0.125,-0.109375 -0.296875,0 -0.640625,0.03125 -0.9375,0.03125 -0.375,0 -0.75,-0.03125 -1.109375,-0.03125 -0.0625,0 -0.1875,0 -0.1875,0.203125 0,0.0625 0.046875,0.09375 0.109375,0.109375 0.09375,0.015625 0.40625,0.03125 0.40625,0.3125 0,0.140625 -0.109375,0.265625 -0.1875,0.359375 L 4.828125,-4.09375 4,-6.078125 l -0.046875,-0.125 c 0,-0.0625 0.15625,-0.25 0.578125,-0.296875 0.109375,-0.015625 0.203125,-0.015625 0.203125,-0.1875 0,-0.125 -0.125,-0.125 -0.15625,-0.125 -0.40625,0 -0.828125,0.03125 -1.25,0.03125 -0.25,0 -0.859375,-0.03125 -1.109375,-0.03125 -0.0625,0 -0.1875,0 -0.1875,0.203125 C 2.03125,-6.5 2.140625,-6.5 2.265625,-6.5 c 0.59375,0 0.65625,0.09375 0.75,0.3125 L 4.1875,-3.40625 2.078125,-1.140625 c -0.046875,0.046875 -0.0625,0.0625 -0.125,0.109375 C 1.46875,-0.5 1,-0.34375 0.484375,-0.3125 c -0.125,0.015625 -0.21875,0.015625 -0.21875,0.203125 0,0 0,0.109375 0.140625,0.109375 0.296875,0 0.625,-0.03125 0.921875,-0.03125 C 1.703125,-0.03125 2.09375,0 2.453125,0 2.515625,0 2.625,0 2.625,-0.203125 2.625,-0.296875 2.515625,-0.3125 2.515625,-0.3125 c -0.09375,0 -0.40625,-0.03125 -0.40625,-0.3125 0,-0.15625 0.15625,-0.3125 0.265625,-0.4375 L 3.40625,-2.140625 4.296875,-3.125 l 1,2.390625 0.0625,0.140625 c 0,0.078125 -0.203125,0.25 -0.578125,0.28125 C 4.671875,-0.296875 4.578125,-0.296875 4.578125,-0.125 4.578125,0 4.6875,0 4.71875,0 L 5.984375,-0.03125 C 6.234375,-0.03125 6.84375,0 7.09375,0 c 0.0625,0 0.1875,0 0.1875,-0.1875 z m 0,0"
           id="path370" />
      </g>
    </g>
    <g
       fill="#000000"
       fill-opacity="1"
       id="g178"
       transform="matrix(0.564444,0,0,0.564444,-0.14867534,4.7050864)">
      <g
         id="use176"
         transform="translate(92.306999,201.29401)">
        <path
           d="m 6.21875,-2.546875 c 0,-0.0625 -0.03125,-0.109375 -0.125,-0.109375 -0.09375,0 -0.109375,0.03125 -0.171875,0.25 C 5.484375,-1.0625 5,-0.34375 3.3125,-0.34375 H 1.609375 l 5.5625,-6.21875 c 0.015625,-0.046875 0.03125,-0.09375 0.03125,-0.15625 0,-0.09375 -0.046875,-0.09375 -0.25,-0.09375 H 2.75 c -0.234375,0 -0.25,0.015625 -0.3125,0.203125 L 1.890625,-4.8125 c -0.015625,0.046875 -0.03125,0.140625 -0.03125,0.140625 0,0 0,0.109375 0.125,0.109375 0.09375,0 0.109375,-0.078125 0.125,-0.109375 C 2.5,-5.84375 3.015625,-6.5 4.5625,-6.5 h 1.625 L 0.625,-0.265625 c 0,0 -0.046875,0.140625 -0.046875,0.171875 C 0.578125,0 0.640625,0 0.828125,0 H 5.15625 c 0.25,0 0.25,-0.015625 0.3125,-0.203125 L 6.1875,-2.40625 c 0,-0.03125 0.03125,-0.109375 0.03125,-0.140625 z m 0,0"
           id="path374" />
      </g>
    </g>
    <g
       fill="#000000"
       fill-opacity="1"
       id="g182"
       transform="matrix(0.564444,0,0,0.564444,-0.14867534,4.7050864)">
      <g
         id="use180"
         transform="translate(145.27499,201.29401)">
        <path
           d="m 6.21875,-2.546875 c 0,-0.0625 -0.03125,-0.109375 -0.125,-0.109375 -0.09375,0 -0.109375,0.03125 -0.171875,0.25 C 5.484375,-1.0625 5,-0.34375 3.3125,-0.34375 H 1.609375 l 5.5625,-6.21875 c 0.015625,-0.046875 0.03125,-0.09375 0.03125,-0.15625 0,-0.09375 -0.046875,-0.09375 -0.25,-0.09375 H 2.75 c -0.234375,0 -0.25,0.015625 -0.3125,0.203125 L 1.890625,-4.8125 c -0.015625,0.046875 -0.03125,0.140625 -0.03125,0.140625 0,0 0,0.109375 0.125,0.109375 0.09375,0 0.109375,-0.078125 0.125,-0.109375 C 2.5,-5.84375 3.015625,-6.5 4.5625,-6.5 h 1.625 L 0.625,-0.265625 c 0,0 -0.046875,0.140625 -0.046875,0.171875 C 0.578125,0 0.640625,0 0.828125,0 H 5.15625 c 0.25,0 0.25,-0.015625 0.3125,-0.203125 L 6.1875,-2.40625 c 0,-0.03125 0.03125,-0.109375 0.03125,-0.140625 z m 0,0"
           id="path378" />
      </g>
    </g>
    <path
       fill="none"
       stroke-width="0.22492"
       stroke-linecap="butt"
       stroke-linejoin="miter"
       stroke="#000000"
       stroke-opacity="1"
       stroke-dasharray="2.78941, 1.59395"
       stroke-miterlimit="10"
       d="M 63.082286,94.284125 H 76.128439"
       id="path184" />
    <path
       fill="none"
       stroke-width="0.22492"
       stroke-linecap="round"
       stroke-linejoin="round"
       stroke="#000000"
       stroke-opacity="1"
       stroke-miterlimit="10"
       d="m 75.072311,92.934751 c 0.213871,0.809183 0.690121,1.190624 1.168576,1.349374 -0.478455,0.156545 -0.954705,0.537985 -1.168576,1.349374"
       id="path186" />
    <g
       fill="#000000"
       fill-opacity="1"
       id="g190"
       transform="matrix(0.564444,0,0,0.564444,-0.14867534,4.7050864)">
      <g
         id="use188"
         transform="translate(120.515,156.358)">
        <path
           d="m 6.0625,-3.296875 0.109375,-1.3125 c -0.03125,-0.125 -0.15625,-0.125 -0.265625,-0.125 H 1.828125 c -0.140625,0 -0.15625,0 -0.203125,0.046875 -0.046875,0.046875 -0.078125,0.125 -0.078125,0.1875 0,0.15625 0.125,0.15625 0.328125,0.15625 0.09375,0 0.21875,0 0.3125,0.015625 0.03125,0 0.046875,0 0.046875,0.015625 l -0.9375,3.796875 c -0.03125,0.09375 -0.03125,0.109375 -0.15625,0.125 -0.109375,0 -0.234375,0 -0.328125,0 -0.21875,0 -0.234375,0 -0.25,0.03125 C 0.46875,-0.3125 0.46875,-0.1875 0.46875,-0.15625 0.46875,-0.09375 0.5,0 0.625,0 0.796875,0 0.96875,-0.015625 1.140625,-0.015625 l 0.5625,-0.015625 0.625,0.015625 C 2.53125,-0.015625 2.75,0 2.953125,0 3.03125,0 3.1875,0 3.1875,-0.234375 c 0,-0.15625 -0.140625,-0.15625 -0.265625,-0.15625 h -0.21875 c -0.0625,0 -0.296875,0 -0.34375,-0.015625 h -0.0625 L 2.75,-2.171875 h 0.546875 c 0.515625,0 0.578125,0.078125 0.578125,0.28125 0,0.078125 -0.015625,0.1875 -0.03125,0.234375 -0.015625,0.0625 -0.015625,0.0625 -0.015625,0.09375 0,0.15625 0.15625,0.15625 0.21875,0.15625 0.1875,0 0.203125,-0.046875 0.234375,-0.203125 L 4.640625,-3.03125 c 0.03125,-0.09375 0.03125,-0.109375 0.03125,-0.140625 0,-0.15625 -0.15625,-0.15625 -0.21875,-0.15625 -0.125,0 -0.1875,0 -0.234375,0.15625 -0.140625,0.5 -0.328125,0.609375 -0.890625,0.609375 H 2.84375 l 0.4375,-1.765625 C 3.34375,-4.34375 3.421875,-4.34375 3.484375,-4.34375 h 1.03125 c 0.875,0 1.125,0.1875 1.125,0.875 0,0.125 -0.015625,0.234375 -0.015625,0.25 0,0.15625 0.15625,0.15625 0.21875,0.15625 0.203125,0 0.21875,-0.0625 0.21875,-0.234375 z m 0,0"
           id="path382" />
      </g>
    </g>
    <path
       fill="none"
       stroke-width="0.22492"
       stroke-linecap="butt"
       stroke-linejoin="miter"
       stroke="#000000"
       stroke-opacity="1"
       stroke-miterlimit="10"
       d="m 54.07323,102.41345 v 9.67272"
       id="path192" />
    <path
       fill="none"
       stroke-width="0.22492"
       stroke-linecap="round"
       stroke-linejoin="round"
       stroke="#000000"
       stroke-opacity="1"
       stroke-miterlimit="10"
       d="m 55.422604,111.03004 c -0.809183,0.21387 -1.190624,0.68792 -1.349374,1.16857 -0.156545,-0.48065 -0.54019,-0.9547 -1.349374,-1.16857"
       id="path194" />
    <g
       fill="#000000"
       fill-opacity="1"
       id="g198"
       transform="matrix(0.564444,0,0,0.564444,-0.14867534,4.7050864)">
      <g
         id="use196"
         transform="translate(98.407997,184.26601)">
        <path
           d="m 6.65625,-4.625 c 0,-0.078125 -0.0625,-0.15625 -0.140625,-0.15625 -0.1875,0 -0.640625,0.03125 -0.8125,0.03125 -0.1875,0 -0.65625,-0.03125 -0.84375,-0.03125 -0.171875,0 -0.21875,0.140625 -0.21875,0.234375 0,0.15625 0.15625,0.15625 0.234375,0.15625 0.28125,0 0.390625,0.03125 0.46875,0.0625 l -0.6875,2.6875 C 4.40625,-0.65625 3.546875,-0.28125 2.640625,-0.28125 2,-0.28125 1.53125,-0.484375 1.53125,-1.0625 c 0,-0.046875 0,-0.1875 0.078125,-0.46875 L 2.3125,-4.375 c 0.03125,0 0.25,-0.015625 0.390625,-0.015625 H 2.84375 c 0.125,0 0.265625,0 0.265625,-0.234375 0,-0.078125 -0.0625,-0.15625 -0.15625,-0.15625 -0.171875,0 -0.34375,0.015625 -0.515625,0.015625 L 1.890625,-4.75 1.359375,-4.765625 c -0.1875,0 -0.390625,-0.015625 -0.5625,-0.015625 -0.046875,0 -0.21875,0 -0.21875,0.234375 0,0.15625 0.140625,0.15625 0.265625,0.15625 h 0.125 c 0.296875,0 0.296875,0.015625 0.296875,0.03125 0,0.046875 -0.234375,0.953125 -0.265625,1.0625 l -0.421875,1.71875 c -0.03125,0.15625 -0.03125,0.15625 -0.03125,0.296875 0,0.734375 0.59375,1.390625 2.046875,1.390625 1.546875,0 2.359375,-0.859375 2.5625,-1.671875 l 0.6875,-2.734375 c 0.1875,-0.09375 0.453125,-0.09375 0.53125,-0.09375 0.140625,0 0.28125,0 0.28125,-0.234375 z m 0,0"
           id="path386" />
      </g>
    </g>
    <path
       fill="none"
       stroke-width="0.22492"
       stroke-linecap="butt"
       stroke-linejoin="miter"
       stroke="#000000"
       stroke-opacity="1"
       stroke-miterlimit="10"
       d="M 58.727688,116.91922 H 79.09177"
       id="path200" />
    <path
       fill="none"
       stroke-width="0.22492"
       stroke-linecap="round"
       stroke-linejoin="round"
       stroke="#000000"
       stroke-opacity="1"
       stroke-miterlimit="10"
       d="m 78.035642,115.56985 c 0.213871,0.80918 0.690121,1.19062 1.168575,1.34937 -0.478454,0.15654 -0.954704,0.53798 -1.168575,1.34937"
       id="path202" />
    <g
       fill="#000000"
       fill-opacity="1"
       id="g206"
       transform="matrix(0.564444,0,0,0.564444,-0.14867534,4.7050864)">
      <g
         id="use204"
         transform="translate(119.665,196.459)">
        <path
           d="m 4.890625,-1.6875 c 0,-0.4375 -0.25,-0.734375 -0.28125,-0.765625 -0.328125,-0.328125 -0.515625,-0.375 -1.1875,-0.5 l -0.578125,-0.125 c -0.171875,-0.03125 -0.671875,-0.140625 -0.671875,-0.5625 0,-0.296875 0.3125,-0.890625 1.28125,-0.890625 0.59375,0 1.203125,0.203125 1.203125,0.984375 0,0.125 -0.015625,0.1875 -0.015625,0.21875 0,0.140625 0.109375,0.140625 0.234375,0.140625 0.140625,0 0.1875,0 0.21875,-0.15625 l 0.328125,-1.3125 c 0.015625,-0.03125 0.03125,-0.078125 0.03125,-0.109375 0,-0.125 -0.140625,-0.125 -0.15625,-0.125 -0.09375,0 -0.09375,0 -0.1875,0.0625 L 4.71875,-4.5 c -0.328125,-0.296875 -0.8125,-0.390625 -1.25,-0.390625 -1.453125,0 -2.078125,1.015625 -2.078125,1.671875 0,0.375 0.203125,0.625 0.25,0.6875 0.328125,0.34375 0.625,0.390625 1.03125,0.46875 L 3.375,-1.90625 c 0.234375,0.03125 0.734375,0.140625 0.734375,0.625 0,0.28125 -0.265625,1 -1.328125,1 -0.625,0 -1.46875,-0.125 -1.46875,-0.859375 0,-0.109375 0,-0.125 0.03125,-0.28125 0.015625,-0.03125 0.015625,-0.046875 0.015625,-0.046875 0,-0.125 -0.140625,-0.125 -0.21875,-0.125 -0.125,0 -0.1875,0 -0.21875,0.109375 0,0 -0.359375,1.4375 -0.359375,1.46875 0,0.109375 0.078125,0.125 0.15625,0.125 0.078125,0 0.09375,-0.015625 0.140625,-0.046875 0.0625,-0.046875 0.203125,-0.15625 0.40625,-0.328125 0.359375,0.28125 0.953125,0.375 1.484375,0.375 1.578125,0 2.140625,-1.1875 2.140625,-1.796875 z m 0,0"
           id="path390" />
      </g>
    </g>
    <path
       fill="none"
       stroke-width="0.22492"
       stroke-linecap="butt"
       stroke-linejoin="miter"
       stroke="#000000"
       stroke-opacity="1"
       stroke-miterlimit="10"
       d="M 83.971123,112.31106 V 100.25488"
       id="path208" />
    <path
       fill="none"
       stroke-width="0.22492"
       stroke-linecap="round"
       stroke-linejoin="round"
       stroke="#000000"
       stroke-opacity="1"
       stroke-miterlimit="10"
       d="m 82.621749,101.31322 c 0.809184,-0.21387 1.192829,-0.69012 1.349374,-1.17078 0.15875,0.48066 0.540191,0.95691 1.349374,1.17078"
       id="path210" />
    <g
       fill="#000000"
       fill-opacity="1"
       id="g214"
       transform="matrix(0.564444,0,0,0.564444,-0.14867534,4.7050864)">
      <g
         id="use212"
         transform="translate(136.911,182.15401)">
        <path
           d="m 9.34375,-4.625 c 0,-0.125 -0.109375,-0.15625 -0.140625,-0.15625 -0.171875,0 -0.40625,0.03125 -0.59375,0.03125 -0.1875,0 -0.671875,-0.03125 -0.859375,-0.03125 -0.109375,0 -0.21875,0.046875 -0.21875,0.234375 0,0.15625 0.15625,0.15625 0.21875,0.15625 0.140625,0 0.28125,0.015625 0.421875,0.0625 l -2.125,3.21875 -0.53125,-3.25 c 0.15625,-0.03125 0.25,-0.03125 0.46875,-0.03125 0.078125,0 0.21875,0 0.21875,-0.234375 0,-0.078125 -0.046875,-0.15625 -0.15625,-0.15625 -0.171875,0 -0.34375,0.015625 -0.515625,0.015625 L 5,-4.75 4.546875,-4.765625 c -0.140625,0 -0.296875,-0.015625 -0.4375,-0.015625 -0.078125,0 -0.109375,0 -0.171875,0.0625 -0.03125,0.046875 -0.046875,0.171875 -0.046875,0.171875 0,0.15625 0.15625,0.15625 0.203125,0.15625 0.09375,0 0.28125,0 0.359375,0.015625 l 0.078125,0.5 c 0,0 0,0.015625 -0.046875,0.078125 l -1.765625,2.6875 -0.5,-3.125 -0.015625,-0.09375 c 0,-0.03125 0.015625,-0.046875 0.140625,-0.0625 0.109375,0 0.15625,0 0.234375,0 0.1875,0 0.203125,0 0.25,-0.046875 0.046875,-0.046875 0.0625,-0.1875 0.0625,-0.1875 0,-0.046875 -0.046875,-0.15625 -0.171875,-0.15625 -0.15625,0 -0.34375,0.015625 -0.515625,0.015625 L 1.671875,-4.75 1.234375,-4.765625 c -0.140625,0 -0.3125,-0.015625 -0.453125,-0.015625 -0.0625,0 -0.203125,0 -0.203125,0.234375 0,0.15625 0.125,0.15625 0.265625,0.15625 0.078125,0 0.15625,0 0.234375,0 C 1.125,-4.375 1.140625,-4.375 1.15625,-4.265625 L 1.8125,-0.125 c 0.046875,0.234375 0.125,0.234375 0.3125,0.234375 0.171875,0 0.265625,0 0.390625,-0.1875 l 2.125,-3.21875 0.5,3.171875 c 0.03125,0.203125 0.0625,0.234375 0.3125,0.234375 0.21875,0 0.265625,-0.015625 0.375,-0.1875 L 8.515625,-4.125 c 0.09375,-0.140625 0.171875,-0.265625 0.59375,-0.265625 0.09375,0 0.234375,0 0.234375,-0.234375 z m 0,0"
           id="path394" />
      </g>
    </g>
    <g
       fill="#000000"
       fill-opacity="1"
       id="g224"
       transform="matrix(0.564444,0,0,0.564444,-0.14867534,4.7050864)">
      <g
         id="use222"
         transform="translate(189.022,153.72501)">
        <path
           d="m 7.28125,-0.1875 c 0,-0.125 -0.109375,-0.125 -0.1875,-0.125 -0.65625,0 -0.6875,-0.03125 -0.859375,-0.4375 L 4.953125,-3.828125 C 5.625,-4.53125 6.671875,-5.71875 7,-5.984375 7.28125,-6.234375 7.671875,-6.46875 8.265625,-6.5 c 0.125,-0.015625 0.21875,-0.015625 0.21875,-0.203125 0,0 0,-0.109375 -0.125,-0.109375 -0.296875,0 -0.640625,0.03125 -0.9375,0.03125 -0.375,0 -0.75,-0.03125 -1.109375,-0.03125 -0.0625,0 -0.1875,0 -0.1875,0.203125 0,0.0625 0.046875,0.09375 0.109375,0.109375 0.09375,0.015625 0.40625,0.03125 0.40625,0.3125 0,0.140625 -0.109375,0.265625 -0.1875,0.359375 L 4.828125,-4.09375 4,-6.078125 l -0.046875,-0.125 c 0,-0.0625 0.15625,-0.25 0.578125,-0.296875 0.109375,-0.015625 0.203125,-0.015625 0.203125,-0.1875 0,-0.125 -0.125,-0.125 -0.15625,-0.125 -0.40625,0 -0.828125,0.03125 -1.25,0.03125 -0.25,0 -0.859375,-0.03125 -1.109375,-0.03125 -0.0625,0 -0.1875,0 -0.1875,0.203125 C 2.03125,-6.5 2.140625,-6.5 2.265625,-6.5 c 0.59375,0 0.65625,0.09375 0.75,0.3125 L 4.1875,-3.40625 2.078125,-1.140625 c -0.046875,0.046875 -0.0625,0.0625 -0.125,0.109375 C 1.46875,-0.5 1,-0.34375 0.484375,-0.3125 c -0.125,0.015625 -0.21875,0.015625 -0.21875,0.203125 0,0 0,0.109375 0.140625,0.109375 0.296875,0 0.625,-0.03125 0.921875,-0.03125 C 1.703125,-0.03125 2.09375,0 2.453125,0 2.515625,0 2.625,0 2.625,-0.203125 2.625,-0.296875 2.515625,-0.3125 2.515625,-0.3125 c -0.09375,0 -0.40625,-0.03125 -0.40625,-0.3125 0,-0.15625 0.15625,-0.3125 0.265625,-0.4375 L 3.40625,-2.140625 4.296875,-3.125 l 1,2.390625 0.0625,0.140625 c 0,0.078125 -0.203125,0.25 -0.578125,0.28125 C 4.671875,-0.296875 4.578125,-0.296875 4.578125,-0.125 4.578125,0 4.6875,0 4.71875,0 L 5.984375,-0.03125 C 6.234375,-0.03125 6.84375,0 7.09375,0 c 0.0625,0 0.1875,0 0.1875,-0.1875 z m 0,0"
           id="path406" />
      </g>
    </g>
    <g
       fill="#000000"
       fill-opacity="1"
       id="g228"
       transform="matrix(0.564444,0,0,0.564444,-0.14867534,4.7050864)">
      <g
         id="use226"
         transform="translate(240.629,153.72501)">
        <path
           d="m 7.28125,-0.1875 c 0,-0.125 -0.109375,-0.125 -0.1875,-0.125 -0.65625,0 -0.6875,-0.03125 -0.859375,-0.4375 L 4.953125,-3.828125 C 5.625,-4.53125 6.671875,-5.71875 7,-5.984375 7.28125,-6.234375 7.671875,-6.46875 8.265625,-6.5 c 0.125,-0.015625 0.21875,-0.015625 0.21875,-0.203125 0,0 0,-0.109375 -0.125,-0.109375 -0.296875,0 -0.640625,0.03125 -0.9375,0.03125 -0.375,0 -0.75,-0.03125 -1.109375,-0.03125 -0.0625,0 -0.1875,0 -0.1875,0.203125 0,0.0625 0.046875,0.09375 0.109375,0.109375 0.09375,0.015625 0.40625,0.03125 0.40625,0.3125 0,0.140625 -0.109375,0.265625 -0.1875,0.359375 L 4.828125,-4.09375 4,-6.078125 l -0.046875,-0.125 c 0,-0.0625 0.15625,-0.25 0.578125,-0.296875 0.109375,-0.015625 0.203125,-0.015625 0.203125,-0.1875 0,-0.125 -0.125,-0.125 -0.15625,-0.125 -0.40625,0 -0.828125,0.03125 -1.25,0.03125 -0.25,0 -0.859375,-0.03125 -1.109375,-0.03125 -0.0625,0 -0.1875,0 -0.1875,0.203125 C 2.03125,-6.5 2.140625,-6.5 2.265625,-6.5 c 0.59375,0 0.65625,0.09375 0.75,0.3125 L 4.1875,-3.40625 2.078125,-1.140625 c -0.046875,0.046875 -0.0625,0.0625 -0.125,0.109375 C 1.46875,-0.5 1,-0.34375 0.484375,-0.3125 c -0.125,0.015625 -0.21875,0.015625 -0.21875,0.203125 0,0 0,0.109375 0.140625,0.109375 0.296875,0 0.625,-0.03125 0.921875,-0.03125 C 1.703125,-0.03125 2.09375,0 2.453125,0 2.515625,0 2.625,0 2.625,-0.203125 2.625,-0.296875 2.515625,-0.3125 2.515625,-0.3125 c -0.09375,0 -0.40625,-0.03125 -0.40625,-0.3125 0,-0.15625 0.15625,-0.3125 0.265625,-0.4375 L 3.40625,-2.140625 4.296875,-3.125 l 1,2.390625 0.0625,0.140625 c 0,0.078125 -0.203125,0.25 -0.578125,0.28125 C 4.671875,-0.296875 4.578125,-0.296875 4.578125,-0.125 4.578125,0 4.6875,0 4.71875,0 L 5.984375,-0.03125 C 6.234375,-0.03125 6.84375,0 7.09375,0 c 0.0625,0 0.1875,0 0.1875,-0.1875 z m 0,0"
           id="path410" />
      </g>
    </g>
    <path
       fill="none"
       stroke-width="0.224931"
       stroke-linecap="butt"
       stroke-linejoin="miter"
       stroke="#000000"
       stroke-opacity="1"
       stroke-miterlimit="10"
       d="m 115.11696,111.84804 c 0,-3.32714 -2.69654,-6.02368 -6.02368,-6.02368 -3.32713,0 -6.02367,2.69654 -6.02367,6.02368 0,3.32713 2.69654,6.02368 6.02367,6.02368 3.32714,0 6.02368,-2.69655 6.02368,-6.02368 z m 0,0"
       id="path230" />
    <g
       fill="#0000ff"
       fill-opacity="1"
       id="g234"
       transform="matrix(0.564444,0,0,0.564444,-0.14867534,4.7050864)">
      <g
         id="use232"
         transform="translate(189.783,193.22501)">
        <path
           d="m 6.21875,-2.546875 c 0,-0.0625 -0.03125,-0.109375 -0.125,-0.109375 -0.09375,0 -0.109375,0.03125 -0.171875,0.25 C 5.484375,-1.0625 5,-0.34375 3.3125,-0.34375 H 1.609375 l 5.5625,-6.21875 c 0.015625,-0.046875 0.03125,-0.09375 0.03125,-0.15625 0,-0.09375 -0.046875,-0.09375 -0.25,-0.09375 H 2.75 c -0.234375,0 -0.25,0.015625 -0.3125,0.203125 L 1.890625,-4.8125 c -0.015625,0.046875 -0.03125,0.140625 -0.03125,0.140625 0,0 0,0.109375 0.125,0.109375 0.09375,0 0.109375,-0.078125 0.125,-0.109375 C 2.5,-5.84375 3.015625,-6.5 4.5625,-6.5 h 1.625 L 0.625,-0.265625 c 0,0 -0.046875,0.140625 -0.046875,0.171875 C 0.578125,0 0.640625,0 0.828125,0 H 5.15625 c 0.25,0 0.25,-0.015625 0.3125,-0.203125 L 6.1875,-2.40625 c 0,-0.03125 0.03125,-0.109375 0.03125,-0.140625 z m 0,0"
           id="path414" />
      </g>
    </g>
    <path
       fill="none"
       stroke-width="0.224931"
       stroke-linecap="butt"
       stroke-linejoin="miter"
       stroke="#000000"
       stroke-opacity="1"
       stroke-miterlimit="10"
       d="m 133.68187,115.82781 h 9.08182 v -7.95954 h -9.08182 z m 0,0"
       id="path236" />
    <g
       fill="#ff0000"
       fill-opacity="1"
       id="g240"
       transform="matrix(0.564444,0,0,0.564444,-0.14867534,4.7050864)">
      <g
         id="use238"
         transform="translate(241.39,193.22501)">
        <path
           d="m 6.21875,-2.546875 c 0,-0.0625 -0.03125,-0.109375 -0.125,-0.109375 -0.09375,0 -0.109375,0.03125 -0.171875,0.25 C 5.484375,-1.0625 5,-0.34375 3.3125,-0.34375 H 1.609375 l 5.5625,-6.21875 c 0.015625,-0.046875 0.03125,-0.09375 0.03125,-0.15625 0,-0.09375 -0.046875,-0.09375 -0.25,-0.09375 H 2.75 c -0.234375,0 -0.25,0.015625 -0.3125,0.203125 L 1.890625,-4.8125 c -0.015625,0.046875 -0.03125,0.140625 -0.03125,0.140625 0,0 0,0.109375 0.125,0.109375 0.09375,0 0.109375,-0.078125 0.125,-0.109375 C 2.5,-5.84375 3.015625,-6.5 4.5625,-6.5 h 1.625 L 0.625,-0.265625 c 0,0 -0.046875,0.140625 -0.046875,0.171875 C 0.578125,0 0.640625,0 0.828125,0 H 5.15625 c 0.25,0 0.25,-0.015625 0.3125,-0.203125 L 6.1875,-2.40625 c 0,-0.03125 0.03125,-0.109375 0.03125,-0.140625 z m 0,0"
           id="path418" />
      </g>
    </g>
    <path
       fill="none"
       stroke-width="0.22492"
       stroke-linecap="butt"
       stroke-linejoin="miter"
       stroke="#000000"
       stroke-opacity="1"
       stroke-dasharray="2.78941, 1.59395"
       stroke-miterlimit="10"
       d="m 114.17769,90.068434 h 18.7369"
       id="path242" />
    <path
       fill="none"
       stroke-width="0.22492"
       stroke-linecap="round"
       stroke-linejoin="round"
       stroke="#000000"
       stroke-opacity="1"
       stroke-miterlimit="10"
       d="m 131.85625,88.71906 c 0.21387,0.809183 0.69012,1.190624 1.17078,1.349374 -0.48066,0.156545 -0.95691,0.54019 -1.17078,1.349374"
       id="path244" />
    <g
       fill="#000000"
       fill-opacity="1"
       id="g248"
       transform="matrix(0.564444,0,0,0.564444,-0.14867534,4.7050864)">
      <g
         id="use246"
         transform="translate(216.078,148.89)">
        <path
           d="m 6.0625,-3.296875 0.109375,-1.3125 c -0.03125,-0.125 -0.15625,-0.125 -0.265625,-0.125 H 1.828125 c -0.140625,0 -0.15625,0 -0.203125,0.046875 -0.046875,0.046875 -0.078125,0.125 -0.078125,0.1875 0,0.15625 0.125,0.15625 0.328125,0.15625 0.09375,0 0.21875,0 0.3125,0.015625 0.03125,0 0.046875,0 0.046875,0.015625 l -0.9375,3.796875 c -0.03125,0.09375 -0.03125,0.109375 -0.15625,0.125 -0.109375,0 -0.234375,0 -0.328125,0 -0.21875,0 -0.234375,0 -0.25,0.03125 C 0.46875,-0.3125 0.46875,-0.1875 0.46875,-0.15625 0.46875,-0.09375 0.5,0 0.625,0 0.796875,0 0.96875,-0.015625 1.140625,-0.015625 l 0.5625,-0.015625 0.625,0.015625 C 2.53125,-0.015625 2.75,0 2.953125,0 3.03125,0 3.1875,0 3.1875,-0.234375 c 0,-0.15625 -0.140625,-0.15625 -0.265625,-0.15625 h -0.21875 c -0.0625,0 -0.296875,0 -0.34375,-0.015625 h -0.0625 L 2.75,-2.171875 h 0.546875 c 0.515625,0 0.578125,0.078125 0.578125,0.28125 0,0.078125 -0.015625,0.1875 -0.03125,0.234375 -0.015625,0.0625 -0.015625,0.0625 -0.015625,0.09375 0,0.15625 0.15625,0.15625 0.21875,0.15625 0.1875,0 0.203125,-0.046875 0.234375,-0.203125 L 4.640625,-3.03125 c 0.03125,-0.09375 0.03125,-0.109375 0.03125,-0.140625 0,-0.15625 -0.15625,-0.15625 -0.21875,-0.15625 -0.125,0 -0.1875,0 -0.234375,0.15625 -0.140625,0.5 -0.328125,0.609375 -0.890625,0.609375 H 2.84375 l 0.4375,-1.765625 C 3.34375,-4.34375 3.421875,-4.34375 3.484375,-4.34375 h 1.03125 c 0.875,0 1.125,0.1875 1.125,0.875 0,0.125 -0.015625,0.234375 -0.015625,0.25 0,0.15625 0.15625,0.15625 0.21875,0.15625 0.203125,0 0.21875,-0.0625 0.21875,-0.234375 z m 0,0"
           id="path422" />
      </g>
    </g>
    <path
       fill="none"
       stroke-width="0.22492"
       stroke-linecap="butt"
       stroke-linejoin="miter"
       stroke="#000000"
       stroke-opacity="1"
       stroke-dasharray="2.78941, 1.59395"
       stroke-miterlimit="10"
       d="M 138.22389,93.644716 V 105.36135"
       id="path250" />
    <path
       fill="none"
       stroke-width="0.22492"
       stroke-linecap="round"
       stroke-linejoin="round"
       stroke="#000000"
       stroke-opacity="1"
       stroke-miterlimit="10"
       d="m 139.57326,104.30521 c -0.81139,0.21388 -1.19283,0.68792 -1.34937,1.16858 -0.15875,-0.48066 -0.54019,-0.9547 -1.34938,-1.16858"
       id="path252" />
    <g
       fill="#000000"
       fill-opacity="1"
       id="g256"
       transform="matrix(0.564444,0,0,0.564444,-0.14867534,4.7050864)">
      <g
         id="use254"
         transform="translate(247.491,170.541)">
        <path
           d="m 6.65625,-4.625 c 0,-0.078125 -0.0625,-0.15625 -0.140625,-0.15625 -0.1875,0 -0.640625,0.03125 -0.8125,0.03125 -0.1875,0 -0.65625,-0.03125 -0.84375,-0.03125 -0.171875,0 -0.21875,0.140625 -0.21875,0.234375 0,0.15625 0.15625,0.15625 0.234375,0.15625 0.28125,0 0.390625,0.03125 0.46875,0.0625 l -0.6875,2.6875 C 4.40625,-0.65625 3.546875,-0.28125 2.640625,-0.28125 2,-0.28125 1.53125,-0.484375 1.53125,-1.0625 c 0,-0.046875 0,-0.1875 0.078125,-0.46875 L 2.3125,-4.375 c 0.03125,0 0.25,-0.015625 0.390625,-0.015625 H 2.84375 c 0.125,0 0.265625,0 0.265625,-0.234375 0,-0.078125 -0.0625,-0.15625 -0.15625,-0.15625 -0.171875,0 -0.34375,0.015625 -0.515625,0.015625 L 1.890625,-4.75 1.359375,-4.765625 c -0.1875,0 -0.390625,-0.015625 -0.5625,-0.015625 -0.046875,0 -0.21875,0 -0.21875,0.234375 0,0.15625 0.140625,0.15625 0.265625,0.15625 h 0.125 c 0.296875,0 0.296875,0.015625 0.296875,0.03125 0,0.046875 -0.234375,0.953125 -0.265625,1.0625 l -0.421875,1.71875 c -0.03125,0.15625 -0.03125,0.15625 -0.03125,0.296875 0,0.734375 0.59375,1.390625 2.046875,1.390625 1.546875,0 2.359375,-0.859375 2.5625,-1.671875 l 0.6875,-2.734375 c 0.1875,-0.09375 0.453125,-0.09375 0.53125,-0.09375 0.140625,0 0.28125,0 0.28125,-0.234375 z m 0,0"
           id="path426" />
      </g>
    </g>
    <path
       fill="none"
       stroke-width="0.22492"
       stroke-linecap="butt"
       stroke-linejoin="miter"
       stroke="#000000"
       stroke-opacity="1"
       stroke-miterlimit="10"
       d="m 117.76499,112.36398 h 13.04615"
       id="path258" />
    <path
       fill="none"
       stroke-width="0.22492"
       stroke-linecap="round"
       stroke-linejoin="round"
       stroke="#000000"
       stroke-opacity="1"
       stroke-miterlimit="10"
       d="m 129.75281,111.0146 c 0.21388,0.80919 0.69013,1.19283 1.17078,1.34938 -0.48065,0.15875 -0.9569,0.54019 -1.17078,1.34937"
       id="path260" />
    <g
       fill="#000000"
       fill-opacity="1"
       id="g264"
       transform="matrix(0.564444,0,0,0.564444,-0.14867534,4.7050864)">
      <g
         id="use262"
         transform="translate(217.774,188.39101)">
        <path
           d="m 4.890625,-1.6875 c 0,-0.4375 -0.25,-0.734375 -0.28125,-0.765625 -0.328125,-0.328125 -0.515625,-0.375 -1.1875,-0.5 l -0.578125,-0.125 c -0.171875,-0.03125 -0.671875,-0.140625 -0.671875,-0.5625 0,-0.296875 0.3125,-0.890625 1.28125,-0.890625 0.59375,0 1.203125,0.203125 1.203125,0.984375 0,0.125 -0.015625,0.1875 -0.015625,0.21875 0,0.140625 0.109375,0.140625 0.234375,0.140625 0.140625,0 0.1875,0 0.21875,-0.15625 l 0.328125,-1.3125 c 0.015625,-0.03125 0.03125,-0.078125 0.03125,-0.109375 0,-0.125 -0.140625,-0.125 -0.15625,-0.125 -0.09375,0 -0.09375,0 -0.1875,0.0625 L 4.71875,-4.5 c -0.328125,-0.296875 -0.8125,-0.390625 -1.25,-0.390625 -1.453125,0 -2.078125,1.015625 -2.078125,1.671875 0,0.375 0.203125,0.625 0.25,0.6875 0.328125,0.34375 0.625,0.390625 1.03125,0.46875 L 3.375,-1.90625 c 0.234375,0.03125 0.734375,0.140625 0.734375,0.625 0,0.28125 -0.265625,1 -1.328125,1 -0.625,0 -1.46875,-0.125 -1.46875,-0.859375 0,-0.109375 0,-0.125 0.03125,-0.28125 0.015625,-0.03125 0.015625,-0.046875 0.015625,-0.046875 0,-0.125 -0.140625,-0.125 -0.21875,-0.125 -0.125,0 -0.1875,0 -0.21875,0.109375 0,0 -0.359375,1.4375 -0.359375,1.46875 0,0.109375 0.078125,0.125 0.15625,0.125 0.078125,0 0.09375,-0.015625 0.140625,-0.046875 0.0625,-0.046875 0.203125,-0.15625 0.40625,-0.328125 0.359375,0.28125 0.953125,0.375 1.484375,0.375 1.578125,0 2.140625,-1.1875 2.140625,-1.796875 z m 0,0"
           id="path430" />
      </g>
    </g>
    <path
       fill="none"
       stroke-width="0.22492"
       stroke-linecap="butt"
       stroke-linejoin="miter"
       stroke="#000000"
       stroke-opacity="1"
       stroke-dasharray="2.78941, 1.59395"
       stroke-miterlimit="10"
       d="M 109.09328,103.54233 V 93.869611"
       id="path266" />
    <path
       fill="none"
       stroke-width="0.22492"
       stroke-linecap="round"
       stroke-linejoin="round"
       stroke="#000000"
       stroke-opacity="1"
       stroke-miterlimit="10"
       d="m 107.74391,94.925739 c 0.80918,-0.213871 1.19283,-0.690121 1.34937,-1.168576 0.15875,0.478455 0.54019,0.954705 1.34938,1.168576"
       id="path268" />
    <g
       fill="#000000"
       fill-opacity="1"
       id="g272"
       transform="matrix(0.564444,0,0,0.564444,-0.14867534,4.7050864)">
      <g
         id="use270"
         transform="translate(181.41901,168.729)">
        <path
           d="m 9.34375,-4.625 c 0,-0.125 -0.109375,-0.15625 -0.140625,-0.15625 -0.171875,0 -0.40625,0.03125 -0.59375,0.03125 -0.1875,0 -0.671875,-0.03125 -0.859375,-0.03125 -0.109375,0 -0.21875,0.046875 -0.21875,0.234375 0,0.15625 0.15625,0.15625 0.21875,0.15625 0.140625,0 0.28125,0.015625 0.421875,0.0625 l -2.125,3.21875 -0.53125,-3.25 c 0.15625,-0.03125 0.25,-0.03125 0.46875,-0.03125 0.078125,0 0.21875,0 0.21875,-0.234375 0,-0.078125 -0.046875,-0.15625 -0.15625,-0.15625 -0.171875,0 -0.34375,0.015625 -0.515625,0.015625 L 5,-4.75 4.546875,-4.765625 c -0.140625,0 -0.296875,-0.015625 -0.4375,-0.015625 -0.078125,0 -0.109375,0 -0.171875,0.0625 -0.03125,0.046875 -0.046875,0.171875 -0.046875,0.171875 0,0.15625 0.15625,0.15625 0.203125,0.15625 0.09375,0 0.28125,0 0.359375,0.015625 l 0.078125,0.5 c 0,0 0,0.015625 -0.046875,0.078125 l -1.765625,2.6875 -0.5,-3.125 -0.015625,-0.09375 c 0,-0.03125 0.015625,-0.046875 0.140625,-0.0625 0.109375,0 0.15625,0 0.234375,0 0.1875,0 0.203125,0 0.25,-0.046875 0.046875,-0.046875 0.0625,-0.1875 0.0625,-0.1875 0,-0.046875 -0.046875,-0.15625 -0.171875,-0.15625 -0.15625,0 -0.34375,0.015625 -0.515625,0.015625 L 1.671875,-4.75 1.234375,-4.765625 c -0.140625,0 -0.3125,-0.015625 -0.453125,-0.015625 -0.0625,0 -0.203125,0 -0.203125,0.234375 0,0.15625 0.125,0.15625 0.265625,0.15625 0.078125,0 0.15625,0 0.234375,0 C 1.125,-4.375 1.140625,-4.375 1.15625,-4.265625 L 1.8125,-0.125 c 0.046875,0.234375 0.125,0.234375 0.3125,0.234375 0.171875,0 0.265625,0 0.390625,-0.1875 l 2.125,-3.21875 0.5,3.171875 c 0.03125,0.203125 0.0625,0.234375 0.3125,0.234375 0.21875,0 0.265625,-0.015625 0.375,-0.1875 L 8.515625,-4.125 c 0.09375,-0.140625 0.171875,-0.265625 0.59375,-0.265625 0.09375,0 0.234375,0 0.234375,-0.234375 z m 0,0"
           id="path434" />
      </g>
    </g>
    <text
       xml:space="preserve"
       style="font-size:4.23333px;line-height:0.75;font-family:cmr10;-inkscape-font-specification:cmr10;fill:#008e00;fill-opacity:1;stroke-width:0.264583"
       x="55.271076"
       y="33.933937"
       id="text451"><tspan
         sodipodi:role="line"
         id="tspan449"
         x="55.271076"
         y="33.933937"
         style="font-size:4.23333px;fill:#008e00;fill-opacity:1;stroke-width:0.264583">invariant foliation</tspan></text>
    <text
       xml:space="preserve"
       style="font-size:4.23333px;line-height:0.75;font-family:cmr10;-inkscape-font-specification:cmr10;stroke-width:0.264583"
       x="105.0127"
       y="33.933937"
       id="text509"><tspan
         sodipodi:role="line"
         id="tspan507"
         x="105.0127"
         y="33.933937"
         style="font-size:4.23333px;stroke-width:0.264583">invariant manifold</tspan></text>
    <text
       xml:space="preserve"
       transform="matrix(0.26458333,0,0,0.26458333,39.214231,35.233552)"
       id="text561"
       style="font-size:42.6667px;line-height:0.75;font-family:cmr10;-inkscape-font-specification:cmr10;white-space:pre;shape-inside:url(#rect563);display:inline" />
    <text
       xml:space="preserve"
       style="font-size:4.23333px;line-height:0.75;font-family:cmr10;-inkscape-font-specification:cmr10;fill:#008e00;fill-opacity:1;stroke-width:0.264583"
       x="58.975246"
       y="84.204773"
       id="text569"><tspan
         sodipodi:role="line"
         id="tspan567"
         x="58.975246"
         y="84.204773"
         style="font-size:4.23333px;fill:#008e00;fill-opacity:1;stroke-width:0.264583">autoencoder</tspan></text>
    <text
       xml:space="preserve"
       style="font-size:4.23333px;line-height:0.75;font-family:cmr10;-inkscape-font-specification:cmr10;stroke-width:0.264583"
       x="106.07103"
       y="84.204773"
       id="text573"><tspan
         sodipodi:role="line"
         id="tspan571"
         x="106.07103"
         y="84.204773"
         style="font-size:4.23333px;stroke-width:0.264583">equation-free model</tspan></text>
  </g>
</svg>
